<?xml version="1.0" encoding="UTF-8" standalone="no"?>
<svg xmlns:dc="http://purl.org/dc/elements/1.1/" xmlns:cc="http://creativecommons.org/ns#" xmlns:rdf="http://www.w3.org/1999/02/22-rdf-syntax-ns#" xmlns:svg="http://www.w3.org/2000/svg" xmlns="http://www.w3.org/2000/svg" viewBox="0 0 301.33334 376" height="60" width="80" xml:space="preserve" id="svg2" version="1.1">
  <metadata id="metadata8">
    <rdf:RDF>
      <cc:Work rdf:about="">
        <dc:format>image/svg+xml</dc:format>
        <dc:type rdf:resource="http://purl.org/dc/dcmitype/StillImage" />
      </cc:Work>
    </rdf:RDF>
  </metadata>
  <defs id="defs6" />
  <g transform="matrix(1.3333333,0,0,-1.3333333,0,376)" id="g10">
    <g transform="scale(0.1)" id="g12">
      <path id="path14" style="fill:#cf4f33;fill-opacity:1;fill-rule:evenodd;stroke:none" d="m 2109.96,2.62109 c 0,1.32813 -7.54,36.55861 -22.54,105.69891 -14.45,69.141 -36.64,166.989 -66.76,293.668 -30.15,125.942 -68.08,274.492 -113.98,445.59 -45.86,171.092 -99.61,359.022 -161.21,563.672 -61.6,204.69 -131.41,419.92 -209.45,645.82 -78.68,226.6 -165.32,457.93 -259.73,694.06 l -264.96,-184.8 c 1.37,-0.63 25.35,-38.67 71.87,-113.99 46.53,-75.23 109.18,-185.46 187.97,-330.54 78.67,-144.5 165.94,-321.02 261.8,-529.85 95.78,-208.79 193.71,-446.29 293.59,-712.54 99.96,-266.289 194.46,-558.512 283.4,-876.78891 M 147.852,1431.8 0,1626.88 c 122.578,149.92 239.301,279.29 350.121,388.16 110.231,108.75 208.399,198.44 294.719,268.94 85.512,69.85 153.281,121.84 203.281,156.1 49.219,34.18 74.258,51.01 74.93,50.31 C 815.621,2387.7 719.77,2285.74 635.551,2184.41 551.41,2083.12 478.48,1987.27 416.879,1896.95 355.27,1807.27 304.648,1727.54 264.961,1657.66 c -39.731,-69.77 -69.141,-124.89 -88.32,-165.32 -19.879,-39.68 -29.45,-59.84 -28.789,-60.54" />
      <path id="path16" style="fill:#21334a;fill-opacity:1;fill-rule:evenodd;stroke:none" d="M 1425.16,1656.64 C 1270.43,1588.2 1103.12,1505 923.051,1407.15 c -179.301,-98.6 -365.16,-213.52 -557.5,-345 12.34,89.02 29.758,186.6 52.379,292.62 22.539,106.13 51.949,218.04 88.32,335.78 36.25,117.77 80.738,238.55 133.48,362.42 -1.371,0 -19.929,-27.03 -55.511,-81.09 C 548.672,1917.07 502.461,1836.29 445.59,1729.53 388.16,1622.77 327.5,1490.35 263.91,1332.23 199.57,1174.06 138.59,991.328 81.0898,783.91 L 326.559,619.609 v -0.98 c 0.632,0.672 0.941,0.98 0.941,0.98 l 3.121,-1.988 c 0,0 0,1.68 0,5.109 10.938,10.282 46.879,41.411 107.82,93.442 60.27,51.988 141.68,118.75 244.329,200.238 102.699,82.141 222.539,173.82 359.38,275.11 137.58,100.59 288.51,205.36 452.81,314.22 -23.28,51.99 -46.52,102.35 -69.8,150.9 m 262.81,109.88 c 13.05,-38.98 25.31,-77.03 36.95,-113.98 167.74,104.02 342.93,203.98 525.74,299.84 -0.74,0 -23.98,-6.17 -69.88,-18.55 -45.78,-12.27 -110.86,-32.15 -195.08,-59.49 -83.51,-27.39 -182.73,-63.32 -297.73,-107.82 M 185.859,1980.04 100.66,2195.66 c 168.36,115.75 324.379,213.6 468.129,293.68 143.121,80.11 268.32,144.45 375.82,193.08 106.761,48.52 189.961,83.79 249.531,105.7 60.24,21.92 90.66,32.5 91.37,31.84 -138.91,-74.57 -265.9,-151.29 -380.94,-229.96 -115,-78.05 -216.949,-153.36 -305.941,-225.9 -89.02,-72.58 -164.25,-137.62 -225.859,-195.08 -61.641,-57.5 -108.239,-103.4 -139.68,-137.65 -31.531,-33.52 -47.231,-50.59 -47.231,-51.33" />
    </g>
  </g>
</svg>